<svg width="91" height="79" viewBox="0 0 91 79" fill="none" xmlns="http://www.w3.org/2000/svg">
<path d="M78.1842 41.4889C82.1969 41.4889 85.447 38.2388 85.447 34.2261C85.447 30.2134 82.1969 26.9633 78.1842 26.9633C77.5124 26.9633 76.8769 27.0904 76.2777 27.2538C71.7748 14.562 59.6822 5.44714 45.447 5.44714C31.2119 5.44714 19.1193 14.562 14.6163 27.2538C13.999 27.0904 13.3635 26.9633 12.7098 26.9633C8.69714 26.9633 5.44702 30.2134 5.44702 34.2261C5.44702 38.2388 8.69714 41.4889 12.7098 41.4889C12.7643 41.4889 12.8188 41.4889 12.8733 41.4889C14.5256 58.0118 28.4702 70.9215 45.447 70.9215C50.7307 70.9215 55.7058 69.6686 60.1179 67.4535C62.1697 70.7036 65.7829 72.8825 69.9046 72.8825C76.2959 72.8825 81.4706 67.7077 81.4706 61.3164C81.4706 56.9406 79.0376 53.1457 75.4606 51.1848C76.768 48.1525 77.6576 44.9206 78.0026 41.4889C78.0571 41.4889 78.1116 41.4889 78.166 41.4889H78.1842Z" fill="white" stroke="white" stroke-width="10.8942" stroke-miterlimit="10"/>
<path d="M78.1842 26.9451C77.5124 26.9451 76.8769 27.0722 76.2777 27.2356C71.7748 14.5438 59.6822 5.42896 45.447 5.42896C31.2119 5.42896 19.1193 14.5438 14.6163 27.2356C13.999 27.0722 13.3635 26.9451 12.7098 26.9451C8.69714 26.9451 5.44702 30.1952 5.44702 34.2079C5.44702 38.2206 8.69714 41.4707 12.7098 41.4707C12.7643 41.4707 12.8188 41.4707 12.8733 41.4707C14.5256 57.9936 28.4702 70.9033 45.447 70.9033C62.4239 70.9033 76.3685 57.9936 78.0208 41.4707C78.0753 41.4707 78.1297 41.4707 78.1842 41.4707C82.1969 41.4707 85.447 38.2206 85.447 34.2079C85.447 30.1952 82.1969 26.9451 78.1842 26.9451Z" fill="#EB9EF4" stroke="#4C106D" stroke-width="2.72356" stroke-miterlimit="10"/>
<path d="M33.064 37.676C35.0696 37.676 36.6954 36.0502 36.6954 34.0446C36.6954 32.039 35.0696 30.4132 33.064 30.4132C31.0585 30.4132 29.4326 32.039 29.4326 34.0446C29.4326 36.0502 31.0585 37.676 33.064 37.676Z" fill="#4C106D"/>
<path d="M57.8304 37.6762C59.836 37.6762 61.4618 36.0503 61.4618 34.0447C61.4618 32.0392 59.836 30.4133 57.8304 30.4133C55.8248 30.4133 54.199 32.0392 54.199 34.0447C54.199 36.0503 55.8248 37.6762 57.8304 37.6762Z" fill="#4C106D"/>
<path d="M69.9047 72.8643C76.2924 72.8643 81.4707 67.686 81.4707 61.2982C81.4707 54.9105 76.2924 49.7322 69.9047 49.7322C63.5169 49.7322 58.3386 54.9105 58.3386 61.2982C58.3386 67.686 63.5169 72.8643 69.9047 72.8643Z" fill="#4C106D" stroke="#4C106D" stroke-width="2.72356" stroke-miterlimit="10"/>
<path d="M68.7063 67.5989C68.3432 67.5989 68.0527 67.3084 68.0527 66.9452V63.1686H64.3668C64.0036 63.1686 63.7131 62.8781 63.7131 62.5149V60.0637C63.7131 59.7006 64.0036 59.4101 64.3668 59.4101H68.0527V55.6334C68.0527 55.2703 68.3432 54.9797 68.7063 54.9797H71.1031C71.4662 54.9797 71.7567 55.2703 71.7567 55.6334V59.4101H75.4426C75.8057 59.4101 76.0962 59.7006 76.0962 60.0637V62.5149C76.0962 62.8781 75.8057 63.1686 75.4426 63.1686H71.7567V66.9452C71.7567 67.3084 71.4662 67.5989 71.1031 67.5989H68.7063Z" fill="#EB9EF4"/>
<path d="M45.4469 5.42908C43.4497 5.48355 40.0361 8.51578 40.0361 12.7645C40.0361 16.1599 42.7779 18.9198 46.1732 18.9198C48.8968 18.9198 51.0938 16.7228 51.0938 13.9992C51.0938 11.8204 49.3325 10.0591 47.1537 10.0591C45.4106 10.0591 44.5209 11.548 44.6843 12.5285" stroke="#4C106D" stroke-width="2.72356" stroke-linecap="round" stroke-linejoin="round"/>
</svg>
