<svg width="18" height="18" viewBox="0 0 18 18" fill="none" xmlns="http://www.w3.org/2000/svg">
<path d="M1.53623 13.9245C1.48749 14.1438 1.48861 14.3712 1.53951 14.5899C1.59041 14.8087 1.68979 15.0132 1.83031 15.1885C1.97083 15.3637 2.14891 15.5051 2.3514 15.6023C2.55389 15.6995 2.77562 15.75 3.00023 15.75H15.0002C15.2248 15.75 15.4466 15.6995 15.6491 15.6023C15.8515 15.5051 16.0296 15.3637 16.1701 15.1885C16.3107 15.0132 16.4101 14.8087 16.461 14.5899C16.5118 14.3712 16.513 14.1438 16.4642 13.9245L14.9642 7.17452C14.8902 6.84142 14.7048 6.54353 14.4386 6.33C14.1725 6.11647 13.8415 6.00007 13.5002 6.00002H4.50023C4.15901 6.00007 3.828 6.11647 3.56184 6.33C3.29568 6.54353 3.11028 6.84142 3.03623 7.17452L1.53623 13.9245Z" stroke="#67218C" stroke-width="1.5" stroke-linecap="round" stroke-linejoin="round"/>
<path d="M6 8.25002V4.50002C6 3.70437 6.31607 2.9413 6.87868 2.37869C7.44129 1.81609 8.20435 1.50002 9 1.50002C9.79565 1.50002 10.5587 1.81609 11.1213 2.37869C11.6839 2.9413 12 3.70437 12 4.50002V8.25002" stroke="#67218C" stroke-width="1.5" stroke-linecap="round" stroke-linejoin="round"/>
</svg>
