<svg width="24" height="24" viewBox="0 0 24 24" fill="none" xmlns="http://www.w3.org/2000/svg">
<path d="M9.00017 11.9995L11 13.9995L14.9996 9.9994M19.9991 13C19.9991 18.0001 16.4994 20.5002 12.3398 21.9502C12.122 22.0241 11.8854 22.0205 11.6699 21.9402C7.50032 20.5002 4.00067 18.0001 4.00067 13V5.99972C4.00067 5.7345 4.10602 5.48014 4.29354 5.2926C4.48105 5.10505 4.73538 4.99969 5.00057 4.99969C7.00037 4.99969 9.50012 3.79965 11.2399 2.2796C11.4518 2.0986 11.7213 1.99915 11.9999 1.99915C12.2785 1.99915 12.548 2.0986 12.7598 2.2796C14.5096 3.80965 16.9994 4.99969 18.9992 4.99969C19.2644 4.99969 19.5187 5.10505 19.7062 5.2926C19.8937 5.48014 19.9991 5.7345 19.9991 5.99972V13Z" stroke="#353535" stroke-width="1.75" stroke-linecap="round"/>
</svg>
